Coordinates
version=1
nRows=15
nColumns=42
inDegrees=yes

Units are S.I. units (second, meters, Newtons, ...)
If the header above contains a line with 'inDegrees', this indicates whether rotational values are in degrees (yes) or radians (no).

endheader
time	pelvis_tilt	pelvis_list	pelvis_rotation	pelvis_tx	pelvis_ty	pelvis_tz	hip_flexion_r	hip_adduction_r	hip_rotation_r	knee_angle_r	knee_adduction_r	knee_angle_r_beta	ankle_angle_r	subtalar_angle_r	mtp_angle_r	hip_flexion_l	hip_adduction_l	hip_rotation_l	knee_angle_l	knee_adduction_l	knee_angle_l_beta	ankle_angle_l	subtalar_angle_l	mtp_angle_l	lumbar_extension	lumbar_bending	lumbar_rotation	arm_flex_r	arm_add_r	arm_rot_r	elbow_flex_r	pro_sup_r	wrist_flex_r	wrist_dev_r	arm_flex_l	arm_add_l	arm_rot_l	elbow_flex_l	pro_sup_l	wrist_flex_l	wrist_dev_l
      0.44000000	      4.20965595	     -1.56398339	      2.60270225	     -1.39668345	      0.91265515	      0.35098169	      8.73751409	     -3.81789322	    -21.40326479	     39.45684204	     -0.35792531	      0.68865181	     23.92690889	      9.04661225	     -9.38087888	     28.32760641	     -8.18097190	    -18.65098799	     38.34113073	     -5.36781332	      0.66917897	      7.13706389	      0.83826530	     -9.38087888	    -21.48932613	      6.73628233	     -3.19920229	      9.81188355	    -14.81965097	     12.35817644	     39.15779657	     90.00000001	      0.00000000	      0.00000000	    -11.43419297	    -10.99493279	     -0.59814241	     66.92440912	     90.00000001	      0.00000000	      0.00000000
      0.45000000	      4.25631134	     -1.68644834	      2.49313399	     -1.39357804	      0.91240776	      0.35013267	      8.50474573	     -3.68657392	    -21.30356569	     39.48180534	     -0.42376594	      0.68908750	     23.96346830	      9.03870747	     -9.37762857	     28.17363067	     -8.15189773	    -18.54578134	     38.37807473	     -5.54302534	      0.66982376	      7.12188092	      0.81290699	     -9.37762857	    -21.41407022	      6.61111403	     -3.13253463	      9.74286548	    -14.67256778	     12.39371852	     39.17164527	     90.00000001	      0.00000000	      0.00000000	    -11.64223429	    -11.02812642	     -0.60243888	     66.76734456	     90.00000001	      0.00000000	      0.00000000
      0.46000000	      4.55981543	     -1.78791586	      2.43552750	     -1.39028423	      0.91270298	      0.34914474	      7.81982503	     -3.50006882	    -20.92635601	     39.21794822	     -0.33721587	      0.68448232	     24.26248728	      8.86401399	     -9.35462808	     27.67803499	     -8.13498619	    -18.51658362	     38.43249985	     -5.67723387	      0.67077366	      7.06782237	      0.48640997	     -9.35462808	    -21.60106950	      6.50092385	     -3.19410127	      9.77721819	    -14.50045784	     12.40758460	     39.27898410	     90.00000001	      0.00000000	      0.00000000	    -11.66482175	    -11.03815873	     -0.66332658	     66.03595269	     90.00000001	      0.00000000	      0.00000000
      0.47000000	      4.69592229	     -1.87473659	      2.31236917	     -1.38706376	      0.91281781	      0.34815211	      7.38292499	     -3.36486541	    -20.52588598	     39.05000517	     -0.25136872	      0.68155116	     24.37982260	      8.52763094	     -9.31242314	     27.37658472	     -8.08524119	    -18.25032167	     38.59499396	     -5.72362339	      0.67360972	      6.93806042	     -0.11157713	     -9.31242314	    -21.61441457	      6.34029211	     -3.10899586	      9.66365634	    -14.37819484	     12.35026952	     39.40841313	     90.00000001	      0.00000000	      0.00000000	    -11.54968231	    -10.92619469	     -0.82659632	     65.10788835	     90.00000001	      0.00000000	      0.00000000
      0.48000000	      4.74359986	     -1.90444194	      2.16166513	     -1.38377000	      0.91282282	      0.34699055	      7.10237535	     -3.34437636	    -20.39292016	     39.00113737	     -0.34061456	      0.68069826	     24.39449236	      8.49402602	     -9.30744658	     27.17954237	     -7.98033386	    -18.12006622	     38.84153124	     -5.83684445	      0.67791261	      6.90302893	     -0.19368463	     -9.30744658	    -21.51132719	      6.13889695	     -3.06757120	      9.57522688	    -14.21704899	     12.36876766	     39.43959245	     90.00000001	      0.00000000	      0.00000000	    -11.76183764	    -10.95733139	     -0.85761929	     64.90035496	     90.00000001	      0.00000000	      0.00000000
      0.49000000	      4.93054647	     -1.95680596	      2.06135315	     -1.38046997	      0.91325262	      0.34581033	      6.52262166	     -3.25282838	    -19.97496422	     38.67570058	     -0.19303824	      0.67501832	     24.52120251	      8.12393581	     -9.25592411	     26.77198501	     -7.91335391	    -17.68402873	     39.03164104	     -5.68694627	      0.68123065	      6.68844276	     -1.37246014	     -9.25592411	    -21.58272199	      5.96592340	     -2.97893549	      9.45195294	    -14.06085873	     12.15193695	     39.67806910	     90.00000001	      0.00000000	      0.00000000	    -11.55154864	    -10.79259981	     -1.16671127	     63.76175680	     90.00000001	      0.00000000	      0.00000000
      0.50000000	      4.95416981	     -1.94869181	      1.93763080	     -1.37715281	      0.91336448	      0.34446229	      6.23667692	     -3.28750344	    -19.86802676	     38.57539644	     -0.28456491	      0.67326768	     24.52916038	      8.10290989	     -9.25146391	     26.58762567	     -7.80530739	    -17.60769929	     39.28216430	     -5.73823065	      0.68560310	      6.66063673	     -1.47164551	     -9.25146391	    -21.45308386	      5.72932210	     -2.95763603	      9.36172162	    -13.90390405	     12.16121026	     39.70973644	     90.00000001	      0.00000000	      0.00000000	    -11.79479379	    -10.81112375	     -1.19049186	     63.56342733	     90.00000001	      0.00000000	      0.00000000
      0.51000000	      5.02603823	     -1.91745723	      1.82623226	     -1.37378831	      0.91367198	      0.34300779	      5.81576653	     -3.34988847	    -19.74330845	     38.32568463	     -0.31626178	      0.66890938	     24.57912459	      8.08008680	     -9.24519100	     26.31910862	     -7.72314018	    -17.62454660	     39.50482784	     -5.71000963	      0.68948932	      6.65866714	     -1.70642490	     -9.24519100	    -21.38216879	      5.49525645	     -2.98779507	      9.28707272	    -13.71638462	     12.15022552	     39.78038533	     90.00000001	      0.00000000	      0.00000000	    -11.98079828	    -10.85186169	     -1.25335606	     63.22993945	     90.00000001	      0.00000000	      0.00000000
      0.52000000	      5.14499295	     -1.93000212	      1.74130800	     -1.37050159	      0.91426671	      0.34140946	      5.26129220	     -3.36626372	    -19.46920571	     37.92409722	     -0.18918264	      0.66190036	     24.63752997	      7.96966493	     -9.16496380	     25.91014882	     -7.61029915	    -17.13358379	     39.55347881	     -5.40926986	      0.69033844	      6.23914300	     -3.60751764	     -9.16496380	    -21.35604964	      5.32781258	     -2.88436245	      9.08261274	    -13.52571885	     11.54535722	     40.20495439	     90.00000001	      0.00000000	      0.00000000	    -11.55464445	    -10.52080205	     -1.81990645	     61.59751340	     90.00000001	      0.00000000	      0.00000000
      0.53000000	      5.10672662	     -1.88271735	      1.60022099	     -1.36718204	      0.91453841	      0.33984108	      4.98666660	     -3.47871030	    -19.42456944	     37.70975320	     -0.26594587	      0.65815935	     24.64702316	      7.96369848	     -9.16093312	     25.70930694	     -7.54672275	    -17.22567234	     39.67684443	     -5.33762826	      0.69249157	      6.25983038	     -3.69359803	     -9.16093312	    -21.16684822	      5.07311171	     -2.81349140	      8.98376222	    -13.37923978	     11.55632696	     40.21645435	     90.00000001	      0.00000000	      0.00000000	    -11.79126143	    -10.54130368	     -1.84096553	     61.45069282	     90.00000001	      0.00000000	      0.00000000
      0.54000000	      5.09291213	     -1.80665110	      1.47309142	     -1.36383793	      0.91495566	      0.33818052	      4.60586730	     -3.62401694	    -19.37022890	     37.35242732	     -0.30494738	      0.65192284	     24.66079168	      7.98504396	     -9.15601814	     25.44229875	     -7.50167144	    -17.48039875	     39.71851254	     -5.23637056	      0.69321882	      6.32767136	     -3.86504379	     -9.15601814	    -21.00617291	      4.79706321	     -2.80226527	      8.88826111	    -13.20262079	     11.55438182	     40.25977783	     90.00000001	      0.00000000	      0.00000000	    -12.00612240	    -10.57987319	     -1.88770762	     61.19538130	     90.00000001	      0.00000000	      0.00000000
      0.55000000	      5.32693893	     -1.74770913	      1.36378497	     -1.36043104	      0.91588708	      0.33633718	      3.83811737	     -3.75712481	    -19.22203201	     36.77881453	     -0.20643624	      0.64191141	     24.65399829	      8.21746696	     -9.13557652	     24.81108138	     -7.44221976	    -18.04153015	     39.56244853	     -5.35247887	      0.69049499	      6.41829778	     -4.30596126	     -9.13557652	    -21.11943660	      4.57983182	     -2.78943857	      8.84113466	    -13.04429435	     11.38275560	     40.42997629	     90.00000001	      0.00000000	      0.00000000	    -11.92366054	    -10.51554968	     -2.08035160	     60.43330216	     90.00000001	      0.00000000	      0.00000000
      0.56000000	      5.33872407	     -1.65192039	      1.23640890	     -1.35708142	      0.91650331	      0.33444657	      3.38207116	     -3.94810259	    -19.18037236	     36.32023472	     -0.22199440	      0.63390768	     24.63832869	      8.44256034	     -9.11737347	     24.42487209	     -7.37239345	    -18.52868463	     39.43216857	     -5.33603292	      0.68822117	      6.49111351	     -4.49886177	     -9.11737347	    -20.98568990	      4.32875191	     -2.74096259	      8.71743880	    -12.89350517	     11.22850824	     40.57522415	     90.00000001	      0.00000000	      0.00000000	    -11.93922506	    -10.43890324	     -2.26375393	     59.78304676	     90.00000001	      0.00000000	      0.00000000
      0.57000000	      5.19190378	     -1.56509571	      1.09106257	     -1.35386363	      0.91690560	      0.33260752	      3.17165598	     -4.16606700	    -19.22402602	     35.97819345	     -0.25131505	      0.62793793	     24.63510775	      8.47811885	     -9.11289651	     24.22855898	     -7.36884300	    -18.83299321	     39.38903767	     -5.10974441	      0.68746840	      6.55293490	     -4.54964274	     -9.11289651	    -20.68437224	      4.06863530	     -2.62419700	      8.61384963	    -12.73410658	     11.22623322	     40.62480749	     90.00000001	      0.00000000	      0.00000000	    -12.14716762	    -10.45429671	     -2.31997635	     59.55078781	     90.00000001	      0.00000000	      0.00000000
      0.58000000	      5.38455806	     -1.44215094	      0.94505207	     -1.35045955	      0.91792100	      0.33055232	      2.40173430	     -4.42246305	    -19.12624052	     35.32512273	     -0.14011504	      0.61653970	     24.52157792	      9.00096936	     -9.09007629	     23.55402542	     -7.26963593	    -19.72264306	     39.06894283	     -5.28732840	      0.68188169	      6.75450180	     -4.59298113	     -9.09007629	    -20.76650712	      3.80893101	     -2.56938040	      8.51226387	    -12.60994853	     10.99080977	     40.86719836	     90.00000001	      0.00000000	      0.00000000	    -11.97272561	    -10.30675004	     -2.60980349	     58.58940549	     90.00000001	      0.00000000	      0.00000000
